<!-- <svg xmlns="http://www.w3.org/2000/svg" width="261.021" height="298.536" viewBox="0 0 261.021 298.536" style="background-color: #0C1A2E;">
  <g transform="translate(-238.695 -107.379)">
    <text transform="translate(293 324)" fill="#63ffda" font-size="200" font-family="SegoeUI-Semibold, Segoe UI" font-weight="600">
      <tspan x="0" y="0">N</tspan>
    </text>
    <path d="M435.651,850.174l126.064-68.158V637.388L437.036,563.135,310.695,632.124V776.474Z" transform="translate(-67 -450)" fill="none" stroke="#63ffda" stroke-width="10"/>
  </g>
</svg> -->


<svg xmlns="http://www.w3.org/2000/svg" class="icon icon-tabler icon-tabler-letter-n" width="24" height="24" viewBox="0 0 24 24" stroke-width="2" stroke="currentColor" fill="none" stroke-linecap="round" stroke-linejoin="round"> 
<path stroke="none" d="M0 0h24v24H0z" fill="none"/> 
<path d="M7 20v-16l10 16v-16" /> 
</svg>

<svg xmlns="http://www.w3.org/2000/svg" viewBox="0 0 100 100">
  <path fill="currentColor" d="M25,10 L25,90 L40,90 L70,50 L70,90 L85,90 L85,10 L70,10 L40,50 L40,10 L25,10 Z"/>
</svg>


<svg xmlns="http://www.w3.org/2000/svg" width="261.021" height="298.536" viewBox="0 0 261.021 298.536">
<g transform="translate(-238.695 -107.379)">
<text transform="translate(293 324)" fill="#63ffda" font-size="200" font-family="SegoeUI-Semibold, Segoe UI" font-weight="600">
  <tspan x="0" y="0">N</tspan>
</text>
  <path d="M435.651,850.174l126.064-68.158V637.388L437.036,563.135,310.695,632.124V776.474Z" transform="translate(-67 -450)" fill="none" stroke="#63ffda" stroke-width="10"/>
</g>
</svg>


